SplineFontDB: 3.0
FontName: SSV_Font_B
FullName: SSV_Font_B
FamilyName: SSV_Font_B
Weight: Regular
Copyright: 
Version: 001.000
ItalicAngle: 0
UnderlinePosition: -100
UnderlineWidth: 50
Ascent: 1000
Descent: 0
InvalidEm: 0
LayerCount: 2
Layer: 0 0 "Back" 1
Layer: 1 0 "Fore" 0
XUID: [1021 726 900175939 2342]
FSType: 0
OS2Version: 0
OS2_WeightWidthSlopeOnly: 0
OS2_UseTypoMetrics: 1
CreationTime: 1468347451
ModificationTime: 1593338767
PfmFamily: 49
TTFWeight: 400
TTFWidth: 5
LineGap: 100
VLineGap: 0
OS2TypoAscent: 0
OS2TypoAOffset: 1
OS2TypoDescent: 0
OS2TypoDOffset: 1
OS2TypoLinegap: 100
OS2WinAscent: 0
OS2WinAOffset: 1
OS2WinDescent: 0
OS2WinDOffset: 1
HheadAscent: 0
HheadAOffset: 1
HheadDescent: 0
HheadDOffset: 1
OS2Vendor: 'PfEd'
MarkAttachClasses: 1
DEI: 91125
LangName: 1033
Encoding: ISO8859-1
UnicodeInterp: none
NameList: AGL For New Fonts
DisplaySize: -48
AntiAlias: 1
FitToEm: 0
WinInfo: 72 18 6
BeginPrivate: 0
EndPrivate
TeXData: 1 0 0 346030 173015 115343 0 1048576 115343 783286 444596 497025 792723 393216 433062 380633 303038 157286 324010 404750 52429 2506097 1059062 262144
BeginChars: 256 35

StartChar: zero
Encoding: 48 48 0
Width: 520
VWidth: 0
Flags: W
HStem: 100 100<191.658 328.342> 800 100<191.658 328.342>
VStem: 35 100<258.19 741.81> 385 100<258.19 741.81>
LayerCount: 2
Fore
SplineSet
385 675 m 2
 385 744 329 800 260 800 c 0
 191 800 135 744 135 675 c 2
 135 325 l 2
 135 256 191 200 260 200 c 0
 329 200 385 256 385 325 c 2
 385 675 l 2
485 325 m 2
 485 201 384 100 260 100 c 0
 136 100 35 201 35 325 c 2
 35 675 l 2
 35 799 136 900 260 900 c 0
 384 900 485 799 485 675 c 6
 485 325 l 2
EndSplineSet
Validated: 1
EndChar

StartChar: eight
Encoding: 56 56 1
Width: 520
VWidth: 0
Flags: W
HStem: 100 100<191.658 328.342> 450 100<190.127 329.873> 800 100<191.658 328.342>
VStem: 35 100<256.658 394.844 605.156 743.342> 385 100<256.658 394.844 605.156 743.342>
LayerCount: 2
Fore
SplineSet
35 675 m 4
 35 799 136 900 260 900 c 4
 384 900 485 799 485 675 c 4
 485 604 452 541 401 500 c 5
 452 459 485 396 485 325 c 4
 485 201 384 100 260 100 c 4
 136 100 35 201 35 325 c 4
 35 396 68 459 119 500 c 5
 68 541 35 604 35 675 c 4
135 325 m 4
 135 256 191 200 260 200 c 4
 329 200 385 256 385 325 c 4
 385 394 329 450 260 450 c 4
 191 450 135 394 135 325 c 4
260 550 m 4
 329 550 385 606 385 675 c 4
 385 744 329 800 260 800 c 4
 191 800 135 744 135 675 c 4
 135 606 191 550 260 550 c 4
EndSplineSet
Validated: 1
EndChar

StartChar: O
Encoding: 79 79 2
Width: 520
VWidth: 0
Flags: W
HStem: 100 100<191.658 328.342> 800 100<191.658 328.342>
VStem: 35 100<258.19 741.81> 385 100<258.19 741.81>
LayerCount: 2
Fore
SplineSet
385 675 m 2
 385 744 329 800 260 800 c 0
 191 800 135 744 135 675 c 2
 135 325 l 2
 135 256 191 200 260 200 c 0
 329 200 385 256 385 325 c 2
 385 675 l 2
485 325 m 2
 485 201 384 100 260 100 c 0
 136 100 35 201 35 325 c 2
 35 675 l 2
 35 799 136 900 260 900 c 0
 384 900 485 799 485 675 c 2
 485 325 l 2
EndSplineSet
Validated: 1
EndChar

StartChar: U
Encoding: 85 85 3
Width: 520
VWidth: 0
Flags: W
HStem: 100 100<191.658 328.342> 880 20G<35 135 385 485>
VStem: 35 100<258.19 900> 385 100<258.19 900>
LayerCount: 2
Fore
SplineSet
485 900 m 25
 485 325 l 2
 485 201 384 100 260 100 c 0
 136 100 35 201 35 325 c 2
 35 900 l 25
 135 900 l 29
 135 325 l 2
 135 256 191 200 260 200 c 0
 329 200 385 256 385 325 c 2
 385 900 l 25
 485 900 l 25
EndSplineSet
Validated: 1
EndChar

StartChar: H
Encoding: 72 72 4
Width: 520
VWidth: 0
Flags: W
HStem: 100 21G<35 135 385 485> 100 21G<35 135 385 485> 450 100<135 385> 880 20G<35 135 385 485>
VStem: 35 100<100 450 550 900> 385 100<100 450 550 900>
LayerCount: 2
Fore
SplineSet
35 900 m 1xbc
 135 900 l 1
 135 550 l 1
 385 550 l 1
 385 900 l 1
 485 900 l 5
 485 100 l 1
 385 100 l 1
 385 450 l 1
 135 450 l 1
 135 100 l 1
 35 100 l 1
 35 900 l 1xbc
EndSplineSet
Validated: 1
EndChar

StartChar: E
Encoding: 69 69 5
Width: 520
VWidth: 0
Flags: W
HStem: 100 100<135 485> 450 100<135 385> 800 100<135 485>
VStem: 35 100<200 450 550 800>
LayerCount: 2
Fore
SplineSet
485 900 m 25
 485 800 l 25
 135 800 l 25
 135 550 l 25
 385 550 l 29
 386 450 l 25
 135 450 l 25
 135 200 l 25
 485 200 l 25
 485 100 l 25
 35 100 l 25
 35 900 l 25
 485 900 l 25
EndSplineSet
Validated: 1
EndChar

StartChar: M
Encoding: 77 77 6
Width: 520
VWidth: 0
Flags: W
HStem: 100 21G<35 135 385 485> 100 21G<35 135 385 485> 880 20G<35 146.905 373.095 485>
VStem: 35 100<100 705> 385 100<100 705>
LayerCount: 2
Fore
SplineSet
35 100 m 29xb8
 35 900 l 29
 135 900 l 29
 260 690 l 29
 385 900 l 29
 485 900 l 29
 485 100 l 29
 385 100 l 29
 385 705 l 29
 260 500 l 29
 135 705 l 29
 135 100 l 29
 35 100 l 29xb8
EndSplineSet
Validated: 1
EndChar

StartChar: I
Encoding: 73 73 7
Width: 520
VWidth: 0
Flags: W
HStem: 100 100<110 210 310 410> 800 100<110 210 310 410>
VStem: 110 300<100 200 800 900>
LayerCount: 2
Fore
SplineSet
110 900 m 25
 410 900 l 25
 410 800 l 25
 310 800 l 25
 310 200 l 25
 410 200 l 25
 410 100 l 25
 110 100 l 25
 110 200 l 25
 210 200 l 25
 210 800 l 29
 110 800 l 25
 110 900 l 25
EndSplineSet
Validated: 1
EndChar

StartChar: three
Encoding: 51 51 8
Width: 520
VWidth: 0
Flags: W
HStem: 100 100<191.658 328.342> 450 100<260 329.873> 800 100<191.658 328.342>
VStem: 35 100<258.19 325 675 741.81> 385 100<256.658 394.844 605.156 743.342>
LayerCount: 2
Fore
SplineSet
35 325 m 1
 135 325 l 1
 135 256 191 200 260 200 c 0
 329 200 385 256 385 325 c 0
 385 394 329 450 260 450 c 1
 260 550 l 1
 329 550 385 606 385 675 c 0
 385 744 329 800 260 800 c 0
 191 800 135 744 135 675 c 1
 35 675 l 1
 35 799 136 900 260 900 c 0
 384 900 485 799 485 675 c 0
 485 604 452 541 401 500 c 1
 452 459 485 396 485 325 c 0
 485 201 384 100 260 100 c 0
 136 100 35 201 35 325 c 1
EndSplineSet
Validated: 1
EndChar

StartChar: P
Encoding: 80 80 10
Width: 520
VWidth: 0
Flags: W
HStem: 100 21G<35 135> 100 21G<35 135> 450 100<135 344.541> 800 100<135 344.541>
VStem: 35 100<100 450 550 800> 385 100<591.787 758.213>
LayerCount: 2
Fore
SplineSet
35 900 m 5xbc
 285 900 l 6
 409 900 485 799 485 675 c 4
 485 551 409 450 285 450 c 6
 135 450 l 5
 135 100 l 5
 35 100 l 5
 35 900 l 5xbc
285 800 m 6
 135 800 l 5
 135 550 l 5
 285 550 l 6
 354 550 385 606 385 675 c 4
 385 744 354 800 285 800 c 6
EndSplineSet
Validated: 1
EndChar

StartChar: Y
Encoding: 89 89 11
Width: 520
VWidth: 0
Flags: W
HStem: 100 21G<210 310> 100 21G<210 310> 880 20G<35 154.2 365.8 485>
VStem: 210 100<100 520>
LayerCount: 2
Fore
SplineSet
35 900 m 25xb0
 145 900 l 25
 260 650 l 29
 375 900 l 25
 485 900 l 25
 310 520 l 25
 310 100 l 25
 210 100 l 25
 210 520 l 25
 35 900 l 25xb0
EndSplineSet
Validated: 1
EndChar

StartChar: L
Encoding: 76 76 12
Width: 520
VWidth: 0
Flags: W
HStem: 100 100<135 485> 880 20G<35 135>
VStem: 35 100<200 900>
LayerCount: 2
Fore
SplineSet
135 900 m 25
 135 200 l 25
 485 200 l 29
 485 100 l 25
 35 100 l 25
 35 900 l 25
 135 900 l 25
EndSplineSet
Validated: 1
EndChar

StartChar: period
Encoding: 46 46 13
Width: 520
VWidth: 0
Flags: W
HStem: 200 100<138.438 221.562>
VStem: 130 100<208.438 291.562>
LayerCount: 2
Fore
SplineSet
130 250 m 0
 130 278 152 300 180 300 c 0
 208 300 230 278 230 250 c 0
 230 222 208 200 180 200 c 0
 152 200 130 222 130 250 c 0
EndSplineSet
Validated: 1
EndChar

StartChar: hyphen
Encoding: 45 45 14
Width: 520
VWidth: 0
Flags: W
HStem: 450 100<35 485>
LayerCount: 2
Fore
SplineSet
35 550 m 5
 485 550 l 5
 485 450 l 5
 35 450 l 5
 35 550 l 5
EndSplineSet
Validated: 1
EndChar

StartChar: plus
Encoding: 43 43 15
Width: 520
VWidth: 0
Flags: W
HStem: 450 100<35 210 310 485>
VStem: 210 100<275 450 550 725>
LayerCount: 2
Fore
SplineSet
310 450 m 1
 310 275 l 1
 210 275 l 1
 210 450 l 1
 35 450 l 1
 35 550 l 1
 210 550 l 1
 210 725 l 1
 310 725 l 1
 310 550 l 1
 485 550 l 1
 485 450 l 1
 310 450 l 1
EndSplineSet
Validated: 1
EndChar

StartChar: seven
Encoding: 55 55 16
Width: 520
VWidth: 0
Flags: W
HStem: 100 21G<35 155.686> 100 21G<35 155.686> 800 100<35 374>
LayerCount: 2
Fore
SplineSet
35 900 m 25xa0
 485 900 l 25
 485 800 l 25
 146 100 l 25
 35 100 l 25
 374 800 l 29
 35 800 l 25
 35 900 l 25xa0
EndSplineSet
Validated: 1
EndChar

StartChar: one
Encoding: 49 49 17
Width: 520
VWidth: 0
Flags: W
HStem: 100 100<35 210 310 485> 880 20G<175 310>
VStem: 210 100<200 784>
LayerCount: 2
Fore
SplineSet
35 200 m 25
 210 200 l 25
 210 784 l 25
 83 713 l 25
 35 800 l 25
 210 900 l 25
 310 900 l 25
 310 200 l 25
 485 200 l 25
 485 100 l 25
 35 100 l 25
 35 200 l 25
EndSplineSet
Validated: 1
EndChar

StartChar: four
Encoding: 52 52 18
Width: 520
VWidth: 0
Flags: W
HStem: 100 21G<335 435> 100 21G<335 435> 325 100<152 335 435 485> 880 20G<322.368 435>
VStem: 335 100<100 325 425 713>
LayerCount: 2
Fore
SplineSet
152 425 m 25x38
 335 425 l 25
 335 713 l 25
 152 425 l 25x38
335 900 m 25
 435 900 l 25
 435 425 l 25
 485 425 l 25
 485 325 l 25
 435 325 l 25
 435 100 l 25
 335 100 l 25xb8
 335 325 l 25
 35 325 l 25
 35 425 l 25
 335 900 l 25
EndSplineSet
Validated: 1
EndChar

StartChar: A
Encoding: 65 65 19
Width: 520
VWidth: 0
Flags: W
HStem: 100 21G<35 141.444 378.556 485> 100 21G<35 141.444 378.556 485> 325 100<209 311> 880 20G<205.625 314.375>
LayerCount: 2
Fore
SplineSet
209 425 m 25x30
 311 425 l 25
 260 660 l 25
 209 425 l 25x30
210 900 m 25
 310 900 l 25
 485 100 l 25
 383 100 l 25
 333 325 l 25
 187 325 l 25
 137 100 l 25
 35 100 l 25xb0
 210 900 l 25
EndSplineSet
Validated: 1
EndChar

StartChar: C
Encoding: 67 67 20
Width: 520
VWidth: 0
Flags: W
HStem: 100 100<191.658 328.342> 800 100<191.658 328.342>
VStem: 35 100<258.19 741.81> 385 100<258.19 325 675 741.81>
LayerCount: 2
Fore
SplineSet
385 325 m 5
 485 325 l 5
 485 201 384 100 260 100 c 4
 136 100 35 201 35 325 c 6
 35 675 l 6
 35 799 136 900 260 900 c 4
 384 900 485 799 485 675 c 5
 385 675 l 5
 385 744 329 800 260 800 c 4
 191 800 135 744 135 675 c 6
 135 325 l 6
 135 256 191 200 260 200 c 4
 329 200 385 256 385 325 c 5
EndSplineSet
Validated: 1
EndChar

StartChar: R
Encoding: 82 82 21
Width: 520
VWidth: 0
Flags: W
HStem: 100 21G<35 135 389.114 430.797> 100 21G<35 135 389.114 430.797> 450 100<135 160 281 344.541> 800 100<135 344.541>
VStem: 35 100<100 450 550 800> 385 100<591.787 758.213>
LayerCount: 2
Fore
SplineSet
285 800 m 2x3c
 135 800 l 1
 135 550 l 1
 285 550 l 2
 354 550 385 606 385 675 c 0
 385 744 354 800 285 800 c 2x3c
35 900 m 1
 285 900 l 2
 409 900 485 799 485 675 c 0
 485 551 409 450 285 450 c 2
 281 450 l 1
 485 159 l 1
 403 100 l 1
 160 450 l 1
 135 450 l 1
 135 100 l 1
 35 100 l 1xbc
 35 900 l 1
EndSplineSet
Validated: 1
EndChar

StartChar: five
Encoding: 53 53 22
Width: 520
VWidth: 0
Flags: W
HStem: 100 100<121.066 292.696> 550 100<135.979 292.696> 800 100<135 485>
VStem: 35 100<640 800> 385 100<292.304 457.696>
LayerCount: 2
Fore
SplineSet
35 598 m 1
 35 900 l 1
 485 900 l 1
 485 800 l 1
 135 800 l 1
 135 640 l 1
 159 646 184 650 210 650 c 0
 362 650 485 527 485 375 c 0
 485 223 362 100 210 100 c 0
 148 100 99 112 53 147 c 1
 42 156 35 170 35 185 c 0
 35 195 38 205 44 214 c 0
 53 226 68 237 85 237 c 0
 91 237 98 236 104 232 c 1
 135 211 165 200 210 200 c 0
 307 200 385 278 385 375 c 0
 385 472 307 550 210 550 c 0
 168 550 138 540 101 520 c 1
 75 505 54 490 35 475 c 1
 35 598 l 1
EndSplineSet
Validated: 1
EndChar

StartChar: two
Encoding: 50 50 23
Width: 520
VWidth: 0
Flags: W
HStem: 100 100<163 485> 800 100<191.658 328.342>
VStem: 35 100<675 741.81> 385 100<605.347 743.342>
LayerCount: 2
Fore
SplineSet
436 535 m 1
 436 535 434 533 432 530 c 2
 163 200 l 1
 485 200 l 1
 485 100 l 1
 35 100 l 1
 35 200 l 1
 260 477 l 1
 356 595 l 1
 374 617 385 645 385 675 c 0
 385 744 329 800 260 800 c 0
 191 800 135 744 135 675 c 1
 35 675 l 1
 35 799 136 900 260 900 c 0
 384 900 485 799 485 675 c 0
 485 622 467 573 436 535 c 1
EndSplineSet
Validated: 1
EndChar

StartChar: six
Encoding: 54 54 24
Width: 520
VWidth: 0
Flags: W
HStem: 100 100<191.658 328.342> 450 100<195.569 328.342> 880 20G<425 447.5>
VStem: 35 100<256.658 391.326> 385 100<256.658 393.342>
LayerCount: 2
Fore
SplineSet
135 325 m 4
 135 256 191 200 260 200 c 4
 329 200 385 256 385 325 c 4
 385 394 329 450 260 450 c 4
 191 450 135 394 135 325 c 4
195 540 m 5
 215 547 237 550 260 550 c 4
 384 550 485 449 485 325 c 4
 485 201 384 100 260 100 c 4
 136 100 35 201 35 325 c 4
 35 601 252 772 367 866 c 4
 397 891 416 900 434 900 c 4
 435 900 436 900 437 900 c 4
 458 899 484 872 485 852 c 4
 485 852 485 851 485 851 c 4
 485 827 456 810 429 788 c 4
 361 734 259 653 195 540 c 5
EndSplineSet
Validated: 1
EndChar

StartChar: nine
Encoding: 57 57 25
Width: 520
VWidth: 0
Flags: W
HStem: 100 21G<72.5 95> 100 21G<72.5 95> 450 100<191.658 324.431> 800 100<191.658 328.342>
VStem: 35 100<606.658 743.342> 385 100<608.674 743.342>
LayerCount: 2
Fore
SplineSet
385 675 m 0x3c
 385 744 329 800 260 800 c 0
 191 800 135 744 135 675 c 0
 135 606 191 550 260 550 c 0
 329 550 385 606 385 675 c 0x3c
325 460 m 1
 305 453 283 450 260 450 c 0
 136 450 35 551 35 675 c 0
 35 799 136 900 260 900 c 0
 384 900 485 799 485 675 c 0
 485 399 268 228 153 134 c 0
 123 109 104 100 86 100 c 4
 85 100 84 100 83 100 c 0xbc
 62 101 36 128 35 148 c 0
 35 148 35 149 35 149 c 0
 35 173 64 190 91 212 c 0
 159 266 261 347 325 460 c 1
EndSplineSet
Validated: 1
EndChar

StartChar: D
Encoding: 68 68 26
Width: 520
VWidth: 0
Flags: W
HStem: 100 100<135 326.81> 800 100<135 326.81>
VStem: 35 100<200 800> 385 100<258.19 741.81>
LayerCount: 2
Fore
SplineSet
35 100 m 1
 35 900 l 1
 110 900 185 900 260 900 c 0
 384 900 485 799 485 675 c 2
 485 325 l 2
 485 201 384 100 260 100 c 0
 185 100 110 100 35 100 c 1
260 800 m 2
 135 800 l 1
 135 200 l 1
 260 200 l 2
 329 200 385 256 385 325 c 2
 385 675 l 2
 385 744 329 800 260 800 c 2
EndSplineSet
Validated: 1
EndChar

StartChar: S
Encoding: 83 83 27
Width: 520
VWidth: 0
Flags: W
HStem: 100 100<180.414 328.342> 800 100<191.658 339.797>
VStem: 35 100<600.289 743.342> 385 100<256.658 399.711>
LayerCount: 2
Fore
SplineSet
260 200 m 0
 329 200 385 256 385 325 c 0
 385 359 380 391 350 412 c 0
 269 468 193 441 119 500 c 0
 60 547 35 604 35 675 c 0
 35 799 136 900 260 900 c 0
 384 900 425 849 465 795 c 0
 472 785 476 773 476 762 c 0
 476 746 470 731 458 721 c 0
 450 714 440 711 430 711 c 0
 413 711 395 720 385 735 c 0
 365 764 329 800 260 800 c 0
 191 800 135 744 135 675 c 0
 135 641 140 609 170 588 c 0
 251 532 327 559 401 500 c 0
 460 453 485 396 485 325 c 0
 485 201 384 100 260 100 c 0
 137 100 95 151 55 205 c 0
 48 215 44 227 44 238 c 0
 44 254 50 269 62 279 c 0
 70 286 80 289 90 289 c 0
 107 289 125 280 135 265 c 0
 155 236 191 200 260 200 c 0
EndSplineSet
Validated: 1
EndChar

StartChar: W
Encoding: 87 87 28
Width: 520
VWidth: 0
Flags: W
HStem: 100 21G<35 146.905 373.095 485> 100 21G<35 146.905 373.095 485> 880 20G<35 135 385 485>
VStem: 35 100<295 900> 385 100<295 900>
LayerCount: 2
Fore
SplineSet
35 900 m 25xb8
 135 900 l 25
 135 295 l 25
 260 500 l 25
 385 295 l 25
 385 900 l 25
 485 900 l 25
 485 100 l 25
 385 100 l 25
 260 310 l 25
 135 100 l 25
 35 100 l 25
 35 900 l 25xb8
EndSplineSet
Validated: 1
EndChar

StartChar: N
Encoding: 78 78 29
Width: 520
VWidth: 0
Flags: W
HStem: 100 21G<35 135 376.039 485> 100 21G<35 135 376.039 485> 880 20G<35 144.042 385 485>
VStem: 35 100<100 658> 385 100<347 900>
LayerCount: 2
Fore
SplineSet
35 100 m 25xb8
 35 900 l 25
 135 900 l 1
 385 347 l 25
 385 900 l 1
 485 900 l 25
 485 100 l 25
 385 100 l 1
 135 658 l 1
 135 100 l 25
 35 100 l 25xb8
EndSplineSet
Validated: 1
EndChar

StartChar: K
Encoding: 75 75 30
Width: 520
VWidth: 0
Flags: W
HStem: 100 21G<35 135 396.491 435.63> 100 21G<35 135 396.491 435.63> 880 20G<35 135 392.343 432.385>
VStem: 35 100<100 375 571 900>
LayerCount: 2
Fore
SplineSet
35 900 m 1xb0
 135 900 l 1
 135 571 l 1
 409 900 l 1
 485 835 l 1
 181 470 l 1
 485 173 l 1
 417 100 l 1
 135 375 l 1
 135 100 l 1
 35 100 l 1
 35 900 l 1xb0
EndSplineSet
Validated: 1
EndChar

StartChar: G
Encoding: 71 71 31
Width: 520
VWidth: 0
Flags: W
HStem: 100 100<191.658 328.342> 400 100<260 385> 800 100<191.658 328.342>
VStem: 35 100<258.19 741.81> 385 100<258.19 400 675 741.81>
LayerCount: 2
Fore
SplineSet
260 500 m 1
 485 500 l 1
 485 325 l 2
 485 201 384 100 260 100 c 0
 136 100 35 201 35 325 c 2
 35 675 l 2
 35 799 136 900 260 900 c 0
 384 900 485 799 485 675 c 1
 385 675 l 1
 385 744 329 800 260 800 c 0
 191 800 135 744 135 675 c 2
 135 325 l 2
 135 256 191 200 260 200 c 0
 329 200 385 256 385 325 c 2
 385 400 l 1
 260 400 l 1
 260 500 l 1
EndSplineSet
Validated: 1
EndChar

StartChar: s
Encoding: 115 115 32
Width: 520
VWidth: 0
Flags: W
HStem: 100 100<158.295 351.903> 599 101<167.115 359.263>
VStem: 35 100<474.342 569.062> 385 100<230.938 325.658>
LayerCount: 2
Fore
SplineSet
260 200 m 0
 329 200 382 227 385 269 c 0
 385 272 385 275 385 277 c 0
 385 300 378 322 350 334 c 0
 277 368 191 336 117 380 c 0
 58 415 35 478 35 531 c 0
 35 624 136 700 260 700 c 0
 384 700 426 662 465 621 c 0
 477 609 478 596 478 588 c 0
 478 576 475 564 465 553 c 0
 456 542 440 537 430 537 c 0
 413 537 396 550 385 560 c 0
 363 579 329 599 260 599 c 0
 191 599 138 573 135 531 c 0
 135 528 135 525 135 523 c 0
 135 500 142 478 170 466 c 0
 243 432 329 464 403 420 c 0
 462 385 485 322 485 269 c 0
 485 176 384 100 260 100 c 0
 137 100 95 138 55 179 c 0
 48 186 44 201 44 210 c 0
 44 222 50 240 62 249 c 0
 70 255 82 259 92 259 c 0
 109 259 125 249 135 239 c 0
 156 218 191 200 260 200 c 0
EndSplineSet
Validated: 1
EndChar

StartChar: degree
Encoding: 176 176 33
Width: 520
VWidth: 0
Flags: W
HStem: 600 100<218.659 301.341> 800 100<218.659 301.341>
VStem: 110 100<708.659 791.341> 310 100<708.659 791.341>
LayerCount: 2
Fore
SplineSet
110 750 m 0
 110 833 177 900 260 900 c 0
 343 900 410 833 410 750 c 0
 410 667 343 600 260 600 c 0
 177 600 110 667 110 750 c 0
210 750 m 0
 210 722 232 700 260 700 c 0
 288 700 310 722 310 750 c 0
 310 778 288 800 260 800 c 0
 232 800 210 778 210 750 c 0
EndSplineSet
Validated: 1
EndChar

StartChar: F
Encoding: 70 70 34
Width: 520
VWidth: 0
Flags: W
HStem: 100 21G<35 135> 100 21G<35 135> 450 100<135 385> 800 100<135 485>
VStem: 35 100<100 450 550 800>
LayerCount: 2
Fore
SplineSet
485 900 m 29xb8
 485 800 l 29
 135 800 l 29
 135 550 l 29
 385 550 l 29
 386 450 l 29
 135 450 l 29
 135 100 l 29
 35 100 l 29
 35 900 l 29
 485 900 l 29xb8
EndSplineSet
Validated: 1
EndChar
